<svg width="24" height="24" viewBox="0 0 24 24" xmlns="http://www.w3.org/2000/svg"><path d="M16.95 16.07a1 1 0 0 1-1.414 1.415L12 13.95l-.707.707 3.536 3.535c.39.39.39 1.025 0 1.415a1.004 1.004 0 0 1-1.415 0L9.879 16.07l-.707.707 3.535 3.536a1 1 0 0 1-1.414 1.414l-8.485-8.485a6.007 6.007 0 0 1 0-8.486 6.007 6.007 0 0 1 8.485 0l-3.89 3.889a1.5 1.5 0 0 0 .236 2.314c1.376 1.155 3.42 1.1 4.715-.192L14.122 9l4.949 4.95a1 1 0 0 1-1.414 1.414l-3.535-3.536-.708.707 3.536 3.536zm4.243-11.313a6.008 6.008 0 0 1 0 8.486c-.002 0-.003.002-.004.003l-.9.9a1.972 1.972 0 0 0-.511-.903l-4.3-4.3a3.451 3.451 0 0 0 2.533-1.004c.12-.121.22-.253.32-.386l-.713-.713a2.476 2.476 0 0 1-.314.392 2.504 2.504 0 0 1-3.147.318l-.035.036-.672.67-.036.037-1.767 1.768a2.478 2.478 0 0 1-3.364.133l-.045-.037-.048-.032a.502.502 0 0 1-.079-.772L8.465 9l.353-.354.707-.707 3.182-3.182a6.008 6.008 0 0 1 8.486 0zm.707-.707a7 7 0 0 0-9.9 0 7 7 0 1 0-9.9 9.9l8.486 8.485a2 2 0 0 0 2.828 0c.425-.425.61-.993.573-1.548a1.992 1.992 0 0 0 1.549-.573c.425-.425.61-.993.573-1.55a1.984 1.984 0 0 0 1.548-.572c.425-.425.61-.992.573-1.548a1.987 1.987 0 0 0 1.54-.567h.002L21.9 13.95a7.002 7.002 0 0 0 0-9.9z" fill="#fff" fill-rule="evenodd"/></svg>