<svg width="24" height="24" viewBox="0 0 24 24" xmlns="http://www.w3.org/2000/svg"><g fill="#fff" fill-rule="evenodd"><path d="M11 18h3.001v-1H11zM16 18h3v-1h-3zM16 15h3v-1h-3zM16 12h3v-1h-3zM11 9h3.001V8H11zM16 9h3V8h-3zM11 6h3.001V5H11zM16 6h3V5h-3z"/><path d="M20 21H10v-3.257A5.495 5.495 0 0 0 11.784 15H14v-1h-2.028c.015-.165.028-.331.028-.5 0-.521-.08-1.022-.216-1.5H14v-1h-2.606A5.523 5.523 0 0 0 10 9.257V3h10v18zM6.5 18A4.505 4.505 0 0 1 2 13.5C2 11.019 4.019 9 6.5 9s4.5 2.019 4.5 4.5S8.981 18 6.5 18zM9 2v6.605A5.474 5.474 0 0 0 6.5 8 5.5 5.5 0 0 0 6 18.975V22h1v-3.025a5.468 5.468 0 0 0 2-.58V22h12V2H9z"/></g></svg>