<svg width="24" height="24" viewBox="0 0 24 24" xmlns="http://www.w3.org/2000/svg"><g fill="#802651" fill-rule="evenodd"><path d="M12 19c-3.86 0-7-3.141-7-7 0-3.86 3.14-7 7-7 3.859 0 7 3.14 7 7 0 3.859-3.141 7-7 7m0-15c-4.411 0-8 3.589-8 8s3.589 8 8 8 8-3.589 8-8-3.589-8-8-8"/><path d="M12.118 7.136c-.601 0-1.112.181-1.519.538-.398.35-.654.811-.759 1.371l.983.185c.064-.34.206-.603.436-.804.444-.392 1.279-.395 1.7.011.208.2.305.45.305.783 0 .194-.036.356-.11.496a2.696 2.696 0 0 1-.351.505 4.292 4.292 0 0 1-.486.476 6.829 6.829 0 0 0-.591.557 3.54 3.54 0 0 0-.501.674c-.159.282-.24.594-.24.93V14h1v-1.143a.86.86 0 0 1 .11-.435 2.58 2.58 0 0 1 .358-.483 6.38 6.38 0 0 1 .506-.476c.217-.182.417-.377.598-.585.189-.217.351-.45.479-.693.152-.284.228-.609.228-.965 0-.607-.206-1.113-.61-1.502-.4-.386-.916-.582-1.536-.582M11.5 15.25a.75.75 0 1 0 0 1.5.75.75 0 0 0 0-1.5"/></g></svg>