<svg width="24" height="24" viewBox="0 0 24 24" xmlns="http://www.w3.org/2000/svg" xmlns:xlink="http://www.w3.org/1999/xlink"><defs><path id="a" d="M0 0h24v24H0z"/><mask id="b" x="0" y="0" width="24" height="24" fill="#fff"><use xlink:href="#a"/></mask></defs><path d="M18.975 13.219h-2.746v7.354h-2.8v-7.354h-1.945V10.57h1.944V8.31c0-1.778 1.15-3.41 3.796-3.41 1.069 0 1.862.104 1.862.104l-.063 2.471s-.808-.007-1.69-.007c-.955 0-1.107.44-1.107 1.17V10.572h2.872l-.123 2.647zM20.858 2H3.142C2.515 2 2 2.515 2 3.143v17.715C2 21.485 2.515 22 3.143 22h17.715c.627 0 1.142-.515 1.142-1.142V3.142C22 2.515 21.485 2 20.858 2z" fill="#1E1E1E" fill-rule="evenodd"/></svg>