<svg width="24" height="24" viewBox="0 0 24 24" xmlns="http://www.w3.org/2000/svg" xmlns:xlink="http://www.w3.org/1999/xlink"><defs><path id="a" d="M0 0h24v24H0z"/><mask id="b" x="0" y="0" width="24" height="24" fill="#fff"><use xlink:href="#a"/></mask></defs><path d="M22.46 6.057a8.031 8.031 0 0 1-2.295.631 4.015 4.015 0 0 0 1.758-2.209 8.088 8.088 0 0 1-2.535.97 3.994 3.994 0 0 0-6.804 3.641 11.344 11.344 0 0 1-8.23-4.172 3.993 3.993 0 0 0 1.235 5.327c-.654-.02-1.27-.2-1.808-.5v.052a3.996 3.996 0 0 0 3.202 3.915 3.99 3.99 0 0 1-1.802.068 3.991 3.991 0 0 0 3.729 2.772A8.006 8.006 0 0 1 3 18.205 11.296 11.296 0 0 0 9.12 20c7.344 0 11.36-6.084 11.36-11.361 0-.174-.004-.345-.01-.518a8.053 8.053 0 0 0 1.99-2.064" fill="#1E1E1E" fill-rule="evenodd"/></svg>