<svg xmlns="http://www.w3.org/2000/svg" width="48" height="48" viewBox="0 0 48 48">
  <g fill="#ffffff" fill-rule="evenodd" transform="translate(8 9)">
    <path d="M6.80715 12C7.77315 12.003 8.62215 12.348 9.20115 12.969L10.29915 11.949C9.43515 11.019 8.19765 10.5045 6.81165 10.5L6.79215 10.5C5.39865 10.5 4.05765 11.0385 3.20415 11.9445L4.29615 12.9735C4.87365 12.36 5.79165 11.9535 6.80715 12M15.80715 12C16.77315 12.003 17.62215 12.348 18.20115 12.969L19.29915 11.949C18.43665 11.019 17.19765 10.5045 15.81165 10.5L15.79215 10.5C14.39865 10.5 13.05765 11.0385 12.20415 11.9445L13.29615 12.9735C13.87365 12.36 14.87115 11.9535 15.80715 12M4.6728 21.01905C6.2598 22.93155 8.5533 23.99055 11.1333 23.99955L11.1663 23.99955C13.7658 23.99955 16.2528 22.88805 17.8233 21.02355L16.6758 20.05605C15.3873 21.58905 13.3293 22.49955 11.1663 22.49955L11.1393 22.49955C9.0123 22.49205 7.1253 21.62655 5.8278 20.06055L4.6728 21.01905zM26.20755 9.00435C27.60255 9.00435 28.94205 8.46585 29.79705 7.55985L28.70355 6.53085C28.12905 7.14135 27.19605 7.50435 26.20905 7.50435L26.19405 7.50435C25.22805 7.50135 24.37755 7.15635 23.80005 6.53535L22.70055 7.55535C23.56455 8.48535 24.80205 8.99985 26.18805 9.00435L26.20755 9.00435z"/>
    <path d="M31.5,14.25 C31.5,19.626 27.126,24 21.75,24 C21.567,24 21.39,23.982 21.21,23.973 L21.21,23.973 C22.0305,22.4115 22.5,20.637 22.5,18.75 L22.5,16.5585 C24.36,16.7235 26.0085,17.526 27.1725,18.9285 L28.3275,17.97 C26.8725,16.2165 24.819,15.192 22.5,15.0255 L22.5,4.5 L12,4.5 L12,1.5 L31.5,1.5 L31.5,14.25 Z M21,18.75 C21,24.126 16.626,28.5 11.25,28.5 C5.874,28.5 1.5,24.126 1.5,18.75 L1.5,6 L21,6 L21,18.75 Z M10.5,0 L10.5,4.5 L0,4.5 L0,18.75 C0,24.963 5.037,30 11.25,30 C14.973,30 18.264,28.1835 20.3115,25.398 C20.7825,25.458 21.261,25.5 21.75,25.5 C27.963,25.5 33,20.463 33,14.25 L33,0 L10.5,0 Z"/>
  </g>
</svg>
